HIERARCHY
ROOT joint_0
{
	OFFSET 0.000000 0.000000 0.000000
	CHANNELS 6 Xposition Yposition Zposition Zrotation Yrotation Xrotation 
	JOINT joint_1
	{
		OFFSET 1.363060 -1.794630 0.839290
		CHANNELS 3 Zrotation Yrotation Xrotation
		JOINT joint_2
		{
			OFFSET 2.448110 -6.726130 0.000000
			CHANNELS 3 Zrotation Yrotation Xrotation
			JOINT joint_3
			{
				OFFSET 2.562200 -7.039590 0.000000
				CHANNELS 3 Zrotation Yrotation Xrotation
				JOINT joint_4
				{
					OFFSET 0.157640 -0.433110 2.322550
					CHANNELS 3 Zrotation Yrotation Xrotation
					End Site
					{
						OFFSET 0.000000 0.000000 0.000000
					}
				}
			}
		}
	}
	JOINT joint_5
	{
		OFFSET -1.305520 -1.794630 0.839290
		CHANNELS 3 Zrotation Yrotation Xrotation
		JOINT joint_6
		{
			OFFSET -2.542530 -6.985550 0.000000
			CHANNELS 3 Zrotation Yrotation Xrotation
			JOINT joint_7
			{
				OFFSET -2.568260 -7.056230 0.000000
				CHANNELS 3 Zrotation Yrotation Xrotation
				JOINT joint_8
				{
					OFFSET -0.164730 -0.452590 2.363150
					CHANNELS 3 Zrotation Yrotation Xrotation
					End Site
					{
						OFFSET 0.000000 0.000000 0.000000
					}
				}
			}
		}
	}
	JOINT joint_9
	{
		OFFSET 0.028270 2.035590 -0.193380
		CHANNELS 3 Zrotation Yrotation Xrotation
		JOINT joint_10
		{
			OFFSET 0.056720 2.048850 -0.042750
			CHANNELS 3 Zrotation Yrotation Xrotation
			JOINT joint_11
			{
				OFFSET -0.054170 1.746240 0.172020
				CHANNELS 3 Zrotation Yrotation Xrotation
				JOINT joint_12
				{
					OFFSET 0.104070 1.761360 -0.123970
					CHANNELS 3 Zrotation Yrotation Xrotation
					End Site
					{
						OFFSET 0.000000 0.000000 0.000000
					}
				}
			}
			JOINT joint_13
			{
				OFFSET 3.362410 1.200890 -0.311210
				CHANNELS 3 Zrotation Yrotation Xrotation
				JOINT joint_14
				{
					OFFSET 4.983000 -0.000000 -0.000000
					CHANNELS 3 Zrotation Yrotation Xrotation
					JOINT joint_15
					{
						OFFSET 3.483560 -0.000000 -0.000000
						CHANNELS 3 Zrotation Yrotation Xrotation
						JOINT joint_16
						{
							OFFSET 0.000000 0.000000 0.000000
							CHANNELS 3 Zrotation Yrotation Xrotation
							End Site
							{
								OFFSET 0.000000 0.000000 0.000000
							}
						}
					}
				}
			}
			JOINT joint_17
			{
				OFFSET -3.136600 1.374050 -0.404650
				CHANNELS 3 Zrotation Yrotation Xrotation
				JOINT joint_18
				{
					OFFSET -5.241900 -0.000000 -0.000000
					CHANNELS 3 Zrotation Yrotation Xrotation
					JOINT joint_19
					{
						OFFSET -3.444170 -0.000000 -0.000000
						CHANNELS 3 Zrotation Yrotation Xrotation
						JOINT joint_20
						{
							OFFSET 0.000000 0.000000 0.000000
							CHANNELS 3 Zrotation Yrotation Xrotation
							End Site
							{
								OFFSET 0.000000 0.000000 0.000000
							}
						}
					}
				}
			}
		}
	}
}
MOTION
Frames: 12
Frame Time: 0.031667
-9.504039 13.213994 1.398569 -12.802456 78.930977 -3.364663 4.536761 15.390544 -41.346130 -3.261205 14.256169 34.207552 -0.911384 -8.747828 0.832727 -0.334161 0.098800 1.185158 -5.989410 -1.536885 -27.428827 -8.728408 -22.758893 68.736526 -0.318246 2.849967 -6.695098 -4.759129 12.299712 -39.106270 0.981651 -1.644689 -5.737017 1.303237 -1.202396 0.527434 -2.312445 2.120142 9.677970 -1.277645 1.017295 -15.885991 -75.255791 -58.228839 8.361530 20.188696 -34.082229 -9.355448 5.192158 -2.255505 -7.809737 -7.395919 -0.334945 -0.281146 42.974525 76.943038 11.768833 -19.536883 28.036849 -14.946024 -2.730603 4.240084 -10.396572 6.648031 -0.319301 -0.332960 
-9.044865 13.234505 1.380784 -15.252708 78.662460 -5.019760 4.647462 14.336091 -44.192385 -2.906591 15.273489 37.130910 -0.053821 -5.269291 -3.003626 -0.325113 0.793544 3.172765 -5.277284 -0.954217 -27.586694 -9.319474 -23.480823 69.657374 0.117085 3.826321 -4.431939 -4.676495 12.164076 -38.734311 0.728714 -1.685015 -5.440386 2.402090 -1.040649 1.380896 -2.390648 2.190007 9.605155 -0.700635 1.110912 -15.482933 -77.304115 -57.916849 11.391188 16.637135 -30.667531 -9.338021 5.324089 -2.736137 -5.012017 -7.403221 -0.346844 -0.289530 53.038863 75.000778 21.385005 -21.254891 30.205572 -16.830529 -2.192278 4.276037 -9.040318 6.638455 -0.329604 -0.342333 
-8.582102 13.253814 1.375227 -16.009581 78.725639 -5.274573 4.200072 14.005454 -47.687096 -1.559146 16.591910 40.476409 -0.561094 -5.271728 -5.978882 -0.282932 1.703074 5.662513 -4.695476 -1.094985 -27.760681 -10.877037 -23.669127 73.128295 0.373226 3.442659 -1.647117 -5.245937 12.801858 -41.267183 0.401871 -1.481241 -6.657008 2.676121 -0.986767 2.420076 -1.387556 2.125458 8.876417 -0.192413 1.365388 -15.219636 -78.506807 -57.560665 15.216536 12.720110 -26.955519 -8.314223 5.123785 -3.522616 -0.539128 -7.421464 -0.365342 -0.308113 56.049431 74.136150 22.679113 -23.373566 31.624081 -18.646695 -2.313234 4.088470 -7.866701 6.616658 -0.347933 -0.360291 
-8.108243 13.300405 1.390545 -14.743326 79.047958 -3.570675 6.620375 13.360004 -46.616797 -0.792126 15.812846 42.729754 -0.459737 0.314959 -8.329957 -0.230609 1.851093 5.954173 -3.756897 -1.336320 -27.211598 -11.368322 -23.300702 74.411594 0.131858 2.229655 0.794466 -4.986767 12.612578 -40.145665 -0.061877 -0.772863 -6.731334 3.848806 -0.725890 2.317242 -0.640761 1.520374 9.297343 0.786759 1.394625 -15.896107 -78.995534 -56.106211 18.758957 10.364957 -24.547472 -8.338651 5.066067 -3.991822 3.877021 -7.377771 -0.322443 -0.273551 60.818903 72.554753 28.522014 -24.245385 32.042084 -20.234951 -2.351787 4.682458 -5.664760 6.663170 -0.309171 -0.313366 
-7.625435 13.354099 1.398971 -12.545284 79.557106 -1.045868 7.719316 12.885013 -46.362311 0.167633 16.626557 44.073930 -0.405724 3.640610 -9.769171 -0.282787 1.206712 4.210675 -3.301730 0.055756 -25.978405 -12.463119 -23.235739 75.180168 0.610100 0.632346 3.140630 -4.040110 11.388473 -35.737465 0.206791 -0.760476 -7.126725 3.769757 -0.944340 2.011737 0.951382 0.995929 8.529423 1.264083 1.166416 -16.823071 -79.258909 -55.563468 20.616753 9.613811 -21.967247 -9.426666 4.653418 -4.543312 6.745985 -7.383321 -0.323526 -0.279902 63.445917 71.056261 29.641166 -25.058741 32.915233 -21.666190 -2.056317 5.053095 -2.865004 6.658529 -0.309403 -0.310864 
-7.136471 13.432327 1.396847 -12.834898 80.075310 -0.522212 7.681370 11.489401 -47.570229 0.889661 17.354667 48.022048 0.599888 4.016512 -12.286150 -0.321910 -0.322750 0.051865 -3.205308 -0.204035 -26.917215 -14.103766 -23.617511 79.193490 -0.930334 -0.368144 3.088488 -2.785861 9.403136 -29.034405 0.195178 -0.953423 -7.660815 3.981481 -0.566232 1.660170 1.157386 0.783526 9.118245 2.087233 0.943216 -17.255977 -78.236354 -55.257467 21.279989 8.518258 -20.757073 -9.270547 4.228026 -4.526165 8.406448 -7.374050 -0.315717 -0.278724 64.059794 71.303688 28.633420 -24.666898 32.329081 -22.099959 -1.643390 5.287877 -1.933997 6.667993 -0.301948 -0.297374 
-6.670526 13.501952 1.377144 -15.472880 80.590347 -2.654320 7.990179 10.899784 -49.572751 2.131007 19.117783 52.653626 1.397874 -1.429901 -13.368668 -0.237690 -2.107735 -4.792234 -3.211705 -1.393635 -28.393027 -16.062447 -24.315755 84.287650 -0.198603 -0.054248 3.528264 -2.077346 7.941995 -24.537727 0.070124 -1.168847 -9.249759 3.623593 -0.363208 1.035478 1.027682 0.208362 8.733794 2.785068 0.887429 -17.270870 -77.289033 -56.532833 20.371434 9.262195 -20.115998 -10.417458 4.039797 -5.147801 9.414124 -7.385502 -0.320125 -0.283058 63.375729 71.474837 24.396362 -22.316834 30.713637 -21.385346 -1.897034 5.062311 -0.868438 6.660906 -0.306562 -0.300400 
-6.211817 13.555721 1.369746 -18.887506 81.359276 -5.776923 6.170393 11.842639 -51.107632 3.480881 19.837067 57.156501 2.134808 -5.528101 -13.112516 0.027494 -3.936291 -9.877235 -3.320647 -1.314290 -28.414252 -17.035390 -23.753249 88.263363 1.115688 -1.718844 1.662889 -1.729816 7.175191 -21.999577 -1.320189 -0.621473 -9.130868 4.601974 -0.500201 0.582519 1.770998 -0.564953 8.042294 3.707483 0.801650 -17.458350 -76.357056 -57.319988 20.426812 9.326955 -20.935610 -10.308738 4.259654 -5.018703 8.963202 -7.358632 -0.308060 -0.266674 67.320834 72.681189 27.854002 -21.582798 29.476156 -21.190891 -1.335874 4.996614 -1.843711 6.674318 -0.296566 -0.283002 
-5.754084 13.606577 1.388607 -22.488663 82.385277 -9.056768 4.514820 8.218153 -53.237214 5.098893 20.941050 61.230280 3.823748 -11.335986 -11.963896 0.425073 -5.605428 -14.653582 -2.342445 -1.673693 -27.713583 -18.501993 -23.607407 91.919879 -0.269683 -2.352721 -5.421606 -1.759594 7.322564 -22.249214 -0.955891 0.340747 -9.212854 4.544518 -0.018673 -0.241910 1.125918 -1.095054 7.545878 4.640274 0.765133 -17.652588 -73.249267 -58.403475 19.462277 12.068565 -21.383127 -11.717822 4.223589 -5.023906 6.394816 -7.340578 -0.289695 -0.246824 65.275441 72.782619 27.472603 -20.585052 27.234625 -20.265632 -1.779424 5.636806 -3.372587 6.697977 -0.280348 -0.265196 
-5.301321 13.663393 1.430833 -25.437986 83.286415 -11.655134 3.809681 4.799624 -52.891173 5.758029 20.766490 62.867040 5.012708 -12.487406 -11.866381 0.834901 -6.984007 -18.620227 -1.505138 -1.876429 -26.840530 -18.893703 -23.177687 93.354317 -0.916332 -2.800924 -12.031261 -1.394291 6.272606 -19.222118 -1.176276 0.534503 -9.712989 4.837018 -0.133285 -1.526590 1.447139 -1.588186 7.625596 5.785386 0.884920 -17.216435 -72.561342 -60.570028 19.168693 13.882692 -23.421626 -12.601694 4.044648 -4.824360 5.440864 -7.349238 -0.304948 -0.260056 65.334504 71.751705 27.584134 -19.445399 25.206317 -20.021965 -1.303650 5.295570 -5.061683 6.679405 -0.293401 -0.280328 
-4.854264 13.730706 1.477207 -27.362179 84.278252 -13.071217 4.414336 0.382580 -51.313533 5.219748 20.277557 60.491334 6.175100 -13.724830 -8.483405 0.828786 -6.905904 -18.478164 -1.084601 -1.078260 -25.051562 -18.628464 -22.919070 93.445015 -2.097859 -3.971077 -17.812808 -1.278042 5.990491 -18.227305 -0.893782 1.949844 -8.981196 4.465117 0.026338 -2.927713 2.127665 -2.445734 6.574682 6.656829 0.589138 -17.162449 -67.862464 -61.438805 15.078122 16.809529 -24.152245 -13.816350 4.629488 -4.639115 4.984967 -7.335543 -0.289677 -0.243264 63.456646 71.461754 27.544160 -17.672309 22.662755 -18.300258 -1.766493 5.383121 -6.108960 6.696479 -0.280077 -0.267041 
-4.434174 13.791907 1.522553 -32.812950 85.215744 -18.129774 4.359000 -5.019722 -51.645693 4.448365 19.288716 57.698002 6.789367 -12.552462 -6.410384 0.763149 -6.612006 -17.800482 -0.815113 -0.324336 -24.813070 -18.340970 -22.172700 91.597546 -2.887398 -4.081616 -19.637239 -1.339132 6.261630 -18.862600 -1.146178 1.488476 -9.181247 4.032242 0.650735 -3.985226 1.619258 -4.208212 5.872540 7.273482 -0.063967 -16.614108 -64.365931 -64.405654 11.200265 19.917579 -26.591860 -14.354715 4.243367 -4.104019 5.729285 -7.310813 -0.268569 -0.218703 63.716941 70.796317 28.522597 -16.641238 20.941050 -17.563177 -1.478247 4.702305 -7.010627 6.725543 -0.261939 -0.244469 
